# xmcd
#
# Track frame offsets:
#	150
#	12195
#	24030
#	37201
#	55845
#	68751
#	82290
#	95242
#	114200
#	130478
#	143833
#	158985
#	174400
#	191016
#	210490
#
# Disc length: 2959 seconds
#
# Revision: 1
# Processed by: cddbd v1.5.2PL0 Copyright (c) Steve Scherf et al.
# Submitted via: EZCDAudioConverter 3.1.5.1
#
DISCID=cf0b8d0f
DTITLE=Various Artist - Solid Gold (Volume 4) Dancing in the Streets
DYEAR=2004
DGENRE=Mowtown
TTITLE0=Martha and The Vandellas - Dancing in the Streets
TTITLE1=The Supremes - Baby Love
TTITLE2=The Jackson 5 - ABC
TTITLE3=Amii Stewart - Knock on Wood
TTITLE4=The Isley Brothers - This Old Heart of Mine (Is Weak for You)
TTITLE5=Billy Ocean - Love Really Hurts Without You
TTITLE6=Lulu and The Luvvers - Shout
TTITLE7=KC and The Sunshine Band - Give It Up
TTITLE8=Earth, Wind and Fire - September
TTITLE9=Altered Images - Happy Birthday
TTITLE10=The Style Council - Shout to the Top
TTITLE11=Love Affair - Bringing on Back the Good Times
TTITLE12=Kenny Loggins - Footloose
TTITLE13=Deniece Williams - Let's Hear It for the Boy
TTITLE14=The Temptations - Ain't Too Proud to Beg
EXTD=
EXTT0=
EXTT1=
EXTT2=
EXTT3=
EXTT4=
EXTT5=
EXTT6=
EXTT7=
EXTT8=
EXTT9=
EXTT10=
EXTT11=
EXTT12=
EXTT13=
EXTT14=
PLAYORDER=
